<mxfile host="app.diagrams.net" modified="2020-11-03T21:30:18.829Z" agent="5.0 (Windows NT 10.0; Win64; x64) AppleWebKit/537.36 (KHTML, like Gecko) Chrome/86.0.4240.75 Safari/537.36" etag="lLv5Pot_bNbrjELugIu9" version="13.8.9" type="github">
  <diagram id="iOCYs8Np4PrWZ3v3W6Fh" name="Page-1">
    <mxGraphModel dx="1742" dy="1055" grid="1" gridSize="10" guides="1" tooltips="1" connect="1" arrows="1" fold="1" page="1" pageScale="1" pageWidth="850" pageHeight="1100" math="0" shadow="0">
      <root>
        <mxCell id="0" />
        <mxCell id="1" parent="0" />
        <mxCell id="V5Os8qpcaIZXZp9Bga_6-14" style="edgeStyle=orthogonalEdgeStyle;rounded=0;orthogonalLoop=1;jettySize=auto;html=1;entryX=0.545;entryY=0.003;entryDx=0;entryDy=0;entryPerimeter=0;" edge="1" parent="1" source="V5Os8qpcaIZXZp9Bga_6-1" target="V5Os8qpcaIZXZp9Bga_6-2">
          <mxGeometry relative="1" as="geometry" />
        </mxCell>
        <mxCell id="V5Os8qpcaIZXZp9Bga_6-1" value="" style="rounded=1;whiteSpace=wrap;html=1;" vertex="1" parent="1">
          <mxGeometry x="40" y="50" width="540" height="490" as="geometry" />
        </mxCell>
        <mxCell id="V5Os8qpcaIZXZp9Bga_6-15" style="edgeStyle=orthogonalEdgeStyle;rounded=0;orthogonalLoop=1;jettySize=auto;html=1;entryX=0.467;entryY=0.003;entryDx=0;entryDy=0;entryPerimeter=0;" edge="1" parent="1" source="V5Os8qpcaIZXZp9Bga_6-2" target="V5Os8qpcaIZXZp9Bga_6-3">
          <mxGeometry relative="1" as="geometry" />
        </mxCell>
        <mxCell id="V5Os8qpcaIZXZp9Bga_6-17" style="edgeStyle=orthogonalEdgeStyle;rounded=0;orthogonalLoop=1;jettySize=auto;html=1;entryX=0.569;entryY=1.003;entryDx=0;entryDy=0;entryPerimeter=0;" edge="1" parent="1" source="V5Os8qpcaIZXZp9Bga_6-2" target="V5Os8qpcaIZXZp9Bga_6-1">
          <mxGeometry relative="1" as="geometry" />
        </mxCell>
        <mxCell id="V5Os8qpcaIZXZp9Bga_6-2" value="" style="rounded=1;whiteSpace=wrap;html=1;" vertex="1" parent="1">
          <mxGeometry x="590" y="570" width="220" height="220" as="geometry" />
        </mxCell>
        <mxCell id="V5Os8qpcaIZXZp9Bga_6-16" style="edgeStyle=orthogonalEdgeStyle;rounded=0;orthogonalLoop=1;jettySize=auto;html=1;entryX=0.5;entryY=1;entryDx=0;entryDy=0;" edge="1" parent="1" source="V5Os8qpcaIZXZp9Bga_6-3" target="V5Os8qpcaIZXZp9Bga_6-2">
          <mxGeometry relative="1" as="geometry" />
        </mxCell>
        <mxCell id="V5Os8qpcaIZXZp9Bga_6-3" value="" style="rounded=1;whiteSpace=wrap;html=1;" vertex="1" parent="1">
          <mxGeometry x="250" y="770" width="210" height="220" as="geometry" />
        </mxCell>
        <mxCell id="V5Os8qpcaIZXZp9Bga_6-4" value="img" style="rounded=0;whiteSpace=wrap;html=1;" vertex="1" parent="1">
          <mxGeometry x="100" y="200" width="100" height="90" as="geometry" />
        </mxCell>
        <mxCell id="V5Os8qpcaIZXZp9Bga_6-5" value="img" style="rounded=0;whiteSpace=wrap;html=1;" vertex="1" parent="1">
          <mxGeometry x="100" y="300" width="100" height="90" as="geometry" />
        </mxCell>
        <mxCell id="V5Os8qpcaIZXZp9Bga_6-6" value="img" style="rounded=0;whiteSpace=wrap;html=1;" vertex="1" parent="1">
          <mxGeometry x="100" y="410" width="100" height="90" as="geometry" />
        </mxCell>
        <mxCell id="V5Os8qpcaIZXZp9Bga_6-7" value="title&lt;br&gt;description&lt;br&gt;keyword&lt;br&gt;horns #" style="rounded=0;whiteSpace=wrap;html=1;" vertex="1" parent="1">
          <mxGeometry x="220" y="200" width="300" height="90" as="geometry" />
        </mxCell>
        <mxCell id="V5Os8qpcaIZXZp9Bga_6-8" value="title&lt;br&gt;description&lt;br&gt;keyword&lt;br&gt;horns #" style="rounded=0;whiteSpace=wrap;html=1;" vertex="1" parent="1">
          <mxGeometry x="220" y="300" width="300" height="90" as="geometry" />
        </mxCell>
        <mxCell id="V5Os8qpcaIZXZp9Bga_6-9" value="title&lt;br&gt;description&lt;br&gt;keyword&lt;br&gt;horns #" style="rounded=0;whiteSpace=wrap;html=1;" vertex="1" parent="1">
          <mxGeometry x="220" y="410" width="300" height="90" as="geometry" />
        </mxCell>
        <mxCell id="V5Os8qpcaIZXZp9Bga_6-10" value="Dropdown menu - filter by keyord&amp;nbsp;" style="shape=document;whiteSpace=wrap;html=1;boundedLbl=1;" vertex="1" parent="1">
          <mxGeometry x="90" y="94" width="120" height="80" as="geometry" />
        </mxCell>
        <mxCell id="V5Os8qpcaIZXZp9Bga_6-11" value="&lt;font style=&quot;font-size: 24px&quot;&gt;HTML&lt;/font&gt;" style="text;html=1;strokeColor=none;fillColor=none;align=center;verticalAlign=middle;whiteSpace=wrap;rounded=0;" vertex="1" parent="1">
          <mxGeometry x="100" y="60" width="40" height="20" as="geometry" />
        </mxCell>
        <mxCell id="V5Os8qpcaIZXZp9Bga_6-12" value="&lt;font style=&quot;font-size: 24px&quot;&gt;JS&lt;/font&gt;" style="text;html=1;strokeColor=none;fillColor=none;align=center;verticalAlign=middle;whiteSpace=wrap;rounded=0;" vertex="1" parent="1">
          <mxGeometry x="610" y="580" width="40" height="20" as="geometry" />
        </mxCell>
        <mxCell id="V5Os8qpcaIZXZp9Bga_6-13" style="edgeStyle=orthogonalEdgeStyle;rounded=0;orthogonalLoop=1;jettySize=auto;html=1;exitX=0.5;exitY=1;exitDx=0;exitDy=0;" edge="1" parent="1" source="V5Os8qpcaIZXZp9Bga_6-12" target="V5Os8qpcaIZXZp9Bga_6-12">
          <mxGeometry relative="1" as="geometry" />
        </mxCell>
        <mxCell id="V5Os8qpcaIZXZp9Bga_6-21" value="&lt;h1&gt;DB&lt;/h1&gt;&lt;p&gt;List of horn objects with img, title, description, keyword, and horns # data.&lt;/p&gt;" style="text;html=1;strokeColor=none;fillColor=none;spacing=5;spacingTop=-20;whiteSpace=wrap;overflow=hidden;rounded=0;" vertex="1" parent="1">
          <mxGeometry x="260" y="810" width="190" height="120" as="geometry" />
        </mxCell>
        <mxCell id="V5Os8qpcaIZXZp9Bga_6-24" value="jQuery event listener" style="rounded=0;whiteSpace=wrap;html=1;" vertex="1" parent="1">
          <mxGeometry x="620" y="610" width="80" height="50" as="geometry" />
        </mxCell>
        <mxCell id="V5Os8qpcaIZXZp9Bga_6-25" value="readJSON function" style="rounded=0;whiteSpace=wrap;html=1;" vertex="1" parent="1">
          <mxGeometry x="620" y="690" width="80" height="60" as="geometry" />
        </mxCell>
        <mxCell id="V5Os8qpcaIZXZp9Bga_6-26" value="Horn object constructor" style="rounded=0;whiteSpace=wrap;html=1;" vertex="1" parent="1">
          <mxGeometry x="710" y="610" width="80" height="50" as="geometry" />
        </mxCell>
        <mxCell id="V5Os8qpcaIZXZp9Bga_6-27" value="Horn render prototype" style="rounded=0;whiteSpace=wrap;html=1;" vertex="1" parent="1">
          <mxGeometry x="710" y="690" width="80" height="60" as="geometry" />
        </mxCell>
        <mxCell id="V5Os8qpcaIZXZp9Bga_6-28" value="User dropdown filter input event" style="text;html=1;strokeColor=none;fillColor=none;align=center;verticalAlign=middle;whiteSpace=wrap;rounded=0;" vertex="1" parent="1">
          <mxGeometry x="600" y="230" width="120" height="80" as="geometry" />
        </mxCell>
        <mxCell id="V5Os8qpcaIZXZp9Bga_6-29" value="Object render from DB via JS" style="text;html=1;strokeColor=none;fillColor=none;align=center;verticalAlign=middle;whiteSpace=wrap;rounded=0;" vertex="1" parent="1">
          <mxGeometry x="240" y="570" width="100" height="100" as="geometry" />
        </mxCell>
        <mxCell id="V5Os8qpcaIZXZp9Bga_6-30" value="DB Object request from HTML via JS" style="text;html=1;strokeColor=none;fillColor=none;align=center;verticalAlign=middle;whiteSpace=wrap;rounded=0;" vertex="1" parent="1">
          <mxGeometry x="230" y="690" width="120" height="40" as="geometry" />
        </mxCell>
        <mxCell id="V5Os8qpcaIZXZp9Bga_6-31" value="Object return" style="text;html=1;strokeColor=none;fillColor=none;align=center;verticalAlign=middle;whiteSpace=wrap;rounded=0;" vertex="1" parent="1">
          <mxGeometry x="550" y="880" width="140" height="40" as="geometry" />
        </mxCell>
      </root>
    </mxGraphModel>
  </diagram>
</mxfile>
